<svg id="Laag_1" data-name="Laag 1" xmlns="http://www.w3.org/2000/svg" viewBox="0 0 340.16 340.16"><defs><style>.cls-1{fill:#0e232d;}</style></defs><title>twitter</title><path class="cls-1" d="M.07,276.47s59.42,8.49,103.27-29c0,0-47-.37-63.5-48,0,0,23.45,2,30.41-1.83,0,0-54.81-11.43-55.25-68.58,0,0,18.46,10.11,31.65,8.35,0,0-51.88-31.65-22-93.2,0,0,50.12,66.38,144.2,73.42,0,0-11.56-40.72,23.46-70.18S271,34.38,287.94,53.55c0,0,26.09-7,43.26-16.68,0,0-3.73,20.52-29.11,37.32,0,0,20.15-1.12,38.06-9.33,0,0-14.55,24.26-33.21,34.7C316.75,124.89,267.16,403.17.07,276.47Z"/></svg>