<svg id="Laag_1" data-name="Laag 1" xmlns="http://www.w3.org/2000/svg" viewBox="0 0 141.73 113.39"><defs><style>.cls-1{fill:#0e232d;}</style></defs><title>twitter</title><path class="cls-1" d="M2,99.52s23.88,3.41,41.5-11.66c0,0-18.89-.15-25.52-19.29,0,0,9.42.81,12.22-.74,0,0-22-4.59-22.21-27.56,0,0,7.42,4.06,12.72,3.36,0,0-20.85-12.72-8.83-37.46,0,0,20.14,26.68,58,29.51,0,0-4.65-16.37,9.43-28.21s31.61-5.25,38.42,2.46c0,0,10.49-2.8,17.39-6.7,0,0-1.5,8.25-11.7,15a48.22,48.22,0,0,0,15.3-3.75s-5.85,9.75-13.35,13.95C129.27,38.6,109.34,150.44,2,99.52Z"/></svg>